<svg width="32" height="32" viewBox="0 0 32 32" fill="none" xmlns="http://www.w3.org/2000/svg">
  <style>
    path {
      fill: black;
    }

    @media (prefers-color-scheme: dark) {
      path {
        fill: white;
      }
    }
  </style>
  <path d="M15.054 30.9511C15.1925 30.9549 16.0958 31.0592 17.2796 30.9511C21.7307 30.5447 25.7368 28.716 29.2977 22.9045C26.627 26.9278 21.6445 29.9192 16.505 29.7169C8.80143 29.4136 2.46584 22.8969 2.79275 15.2769C3.09596 8.2091 9.22489 2.35701 16.4303 2.68116C23.0792 2.98029 28.5307 8.62446 28.2055 15.194C27.9073 21.2191 22.6597 26.1969 16.5166 25.8744C10.9211 25.5808 6.35373 20.8085 6.67652 15.2908C6.96808 10.307 11.3353 6.20339 16.4144 6.52328C20.9584 6.80947 24.6414 10.7108 24.3222 15.1744C24.0402 19.1196 20.5518 22.3489 16.5397 22.033C13.0438 21.7578 10.2457 18.7256 10.5588 15.3206C10.8264 12.4089 13.4385 10.0546 16.3776 10.3632C18.833 10.6209 20.7436 12.7866 20.4428 15.1238C20.1996 17.0141 18.4588 18.4895 16.608 18.1981C15.1712 17.9718 14.1609 16.6674 14.427 15.4267C14.5152 15.0156 14.7771 14.6202 15.1258 14.3719C15.4633 14.1315 15.8381 14.0548 16.2038 14.17C16.3021 14.201 16.4081 14.2642 16.4989 14.3448C16.4932 14.3446 16.4874 14.3445 16.4816 14.3444C16.4778 14.3443 16.474 14.3443 16.4701 14.3443C15.9785 14.3443 15.5799 14.7446 15.5799 15.2384C15.5799 15.6004 15.7182 16.0192 16.1157 16.2751C16.4557 16.494 16.818 16.4798 17.0325 16.4441C17.2663 16.4052 17.4841 16.316 17.6615 16.2118C17.8272 16.1144 18.0393 15.9562 18.1889 15.7237C18.6668 14.9811 18.526 14.1847 18.1884 13.6178C17.8654 13.0755 17.3213 12.648 16.7365 12.4638C15.7563 12.1551 14.8105 12.4044 14.0959 12.9133C13.3925 13.4142 12.8707 14.1916 12.6865 15.0501C12.1533 17.5358 14.1444 19.6201 16.3322 19.9646C19.3125 20.4339 21.8557 18.0949 22.2086 15.353C22.658 11.861 19.8472 8.92949 16.5627 8.58471C12.5499 8.1635 9.1364 11.3428 8.78584 15.1562C8.3703 19.6764 12.0409 23.4724 16.4006 23.8157C21.458 24.2138 25.7497 20.1754 26.0981 15.3024C26.4954 9.74614 21.9533 5.0805 16.5259 4.73866C10.4186 4.35401 5.24589 9.25828 4.89912 15.1859C4.51324 21.7821 9.9318 27.3194 16.4237 27.6601C23.5834 28.0359 29.6383 22.2626 29.9838 15.2828C30.1279 12.3724 29.3027 9.64022 27.808 7.35428C25.0621 3.5068 20.5721 1 15.4991 1C14.2741 1 13.0831 1.14617 11.9424 1.42209C5.86752 3.13706 1.29206 8.71669 1.01393 15.1999C0.661183 23.4223 7.05372 29.9493 15.054 30.9511Z" fill="black"/>
</svg>
